<svg xmlns="http://www.w3.org/2000/svg" width="480" height="320" viewBox="0 0 480 320"><rect width="480" height="320" rx="20" fill="#131927"/><rect x="44" y="105" width="392" height="115" rx="10" fill="#243b3b" stroke="#20d6a7" stroke-width="3"/><path d="M62 108h356v35H62z" fill="#34435d"/><path d="M62 110h356" stroke="#9b83ff" stroke-width="8"/><g fill="#101724" stroke="#65728d" stroke-width="2"><rect x="65" y="153" width="50" height="46" rx="3"/><rect x="132" y="153" width="50" height="46" rx="3"/><rect x="199" y="153" width="50" height="46" rx="3"/><rect x="266" y="153" width="50" height="46" rx="3"/><rect x="333" y="153" width="50" height="46" rx="3"/></g><path d="M62 222h158m20 0h178" stroke="#d1b46c" stroke-width="12"/><path d="M80 214v14m16-14v14m16-14v14m16-14v14m16-14v14m16-14v14m16-14v14m16-14v14m66-14v14m16-14v14m16-14v14m16-14v14m16-14v14m16-14v14m16-14v14m16-14v14m16-14v14" stroke="#131927" stroke-width="3"/></svg>
